<svg xmlns:xlink="http://www.w3.org/1999/xlink" xmlns="http://www.w3.org/2000/svg" width="63.242" height="61.148" viewBox="0 0 63.242 61.148">
  <g id="Group_708" data-name="Group 708" transform="translate(-669 -2790)">
    <path id="Path_42" data-name="Path 42" d="M387.6,294.078a10.29,10.29,0,1,0-10.29-10.292,10.292,10.292,0,0,0,10.29,10.292" transform="translate(313.017 2516.503)" fill="#D10074"></path>
    <path id="Path_43" data-name="Path 43" d="M380.548,299.2a10.289,10.289,0,1,0-12.966,6.605,10.29,10.29,0,0,0,12.966-6.605" transform="translate(308.53 2519.762)" fill="#D10074"></path>
    <path id="Path_44" data-name="Path 44" d="M394.66,299.2a10.291,10.291,0,1,0,6.607-12.968A10.291,10.291,0,0,0,394.66,299.2" transform="translate(317.502 2519.761)" fill="#D10074"></path>
    <path id="Path_45" data-name="Path 45" d="M383.244,307.5a10.29,10.29,0,1,0,2.276,14.374,10.291,10.291,0,0,0-2.276-14.374" transform="translate(310.244 2525.035)" fill="#D10074"></path>
    <path id="Path_46" data-name="Path 46" d="M391.965,307.5a10.29,10.29,0,1,0,14.373,2.277,10.29,10.29,0,0,0-14.373-2.277" transform="translate(315.789 2525.035)" fill="#E0007A"></path>
    <path id="Path_47" data-name="Path 47" d="M384.792,298.076a4.422,4.422,0,1,0-6.176-.978,4.421,4.421,0,0,0,6.176.978" transform="translate(313.139 2520.919)" fill="#D10074"></path>
    <path id="Path_48" data-name="Path 48" d="M383.811,301.1a4.422,4.422,0,1,0-2.84,5.571,4.425,4.425,0,0,0,2.84-5.571" transform="translate(312.449 2523.041)" fill="#D10074"></path>
    <path id="Path_49" data-name="Path 49" d="M387.969,298.076a4.422,4.422,0,1,0-.978-6.177,4.422,4.422,0,0,0,.978,6.177" transform="translate(315.37 2520.919)" fill="#D10074"></path>
    <path id="Path_50" data-name="Path 50" d="M386.382,302.966a4.422,4.422,0,1,0,4.421,4.422,4.422,4.422,0,0,0-4.421-4.422" transform="translate(314.254 2524.352)" fill="#D10074"></path>
    <path id="Path_51" data-name="Path 51" d="M388.953,301.1a4.422,4.422,0,1,0,5.572-2.839,4.422,4.422,0,0,0-5.572,2.839" transform="translate(316.06 2523.041)" fill="#E0007A"></path>
  </g>
</svg>