<svg xmlns:xlink="http://www.w3.org/1999/xlink" xmlns="http://www.w3.org/2000/svg" width="63.378" height="61.286" viewBox="0 0 63.378 61.286">
  <g id="Group_709" data-name="Group 709" transform="translate(-669 -3143)">
    <path id="Path_103" data-name="Path 103" d="M223.43,210.6a18.275,18.275,0,0,0,7.544-1.142c-.016-.23-.037-.437-.044-.645a10.616,10.616,0,0,1,6.11-10.059,10.59,10.59,0,1,1,7.827,19.644,13.488,13.488,0,0,1-5.214.727,18.537,18.537,0,0,1-4.832-.992,27.772,27.772,0,0,1-9.812-5.813c-.483-.442-.911-.943-1.361-1.42A3.32,3.32,0,0,1,223.43,210.6Z" transform="translate(480.266 2960.565)" fill="#6F9AD3"></path>
    <path id="Path_104" data-name="Path 104" d="M-131.344,515.122a18.3,18.3,0,0,0-5.429,5.367c.156.192.3.362.435.536a10.467,10.467,0,0,1,2.271,6.965,9.98,9.98,0,0,1-1.242,4.568,10.34,10.34,0,0,1-7.493,5.431,10.548,10.548,0,0,1-12.257-8.468,10.528,10.528,0,0,1,1.894-8.253,14.644,14.644,0,0,1,7.391-5.278,25.5,25.5,0,0,1,5.106-1.223,29.749,29.749,0,0,1,5.4-.251,16.919,16.919,0,0,1,3.743.544C-131.486,515.071-131.446,515.087-131.344,515.122Z" transform="translate(832.298 2666.125)" fill="#6F9AD3"></path>
    <path id="Path_105" data-name="Path 105" d="M-243.12,217.231a26.129,26.129,0,0,0-3.254-2.136,12.778,12.778,0,0,0-3.533-1.367c-.061.088-.124.17-.179.257a10.471,10.471,0,0,1-6.755,4.773,10.245,10.245,0,0,1-4.251.052,10.585,10.585,0,0,1-8.227-7.636,10.6,10.6,0,0,1,7.788-13.059,11.028,11.028,0,0,1,5.848.273,13.851,13.851,0,0,1,6.4,4.329,26.205,26.205,0,0,1,4.833,8.42,23.184,23.184,0,0,1,1.241,4.926c.04.3.061.606.088.909C-243.115,217.029-243.12,217.088-243.12,217.231Z" transform="translate(938.685 2960.491)" fill="#6F9AD3"></path>
    <path id="Path_106" data-name="Path 106" d="M37.225,8.418c.123-.38.224-.688.323-1a21.332,21.332,0,0,0,.866-3.795A12.876,12.876,0,0,0,38.5,1.206c-.02-.333-.029-.326-.347-.415a10.347,10.347,0,0,1-7.735-7.717,10.512,10.512,0,0,1,7.739-12.843,10.562,10.562,0,0,1,12.769,7.6,12.636,12.636,0,0,1,.332,3.591,12.71,12.71,0,0,1-1.24,4.975,21.343,21.343,0,0,1-3.651,5.393,27.334,27.334,0,0,1-7.284,5.79c-.442.238-.906.438-1.362.65C37.582,8.29,37.438,8.336,37.225,8.418Z" transform="translate(660.017 3163.08)" fill="#6F9AD3"></path>
    <path id="Path_107" data-name="Path 107" d="M211.236,472.872c.559-.183,1.061-.384,1.58-.511a10.358,10.358,0,0,1,10.148,2.654,9.894,9.894,0,0,1,3.12,6.4,10.343,10.343,0,0,1-3.719,9.259,9.687,9.687,0,0,1-5.1,2.343,10.445,10.445,0,0,1-10.353-4.337,12.724,12.724,0,0,1-2.369-5.418,20.684,20.684,0,0,1-.332-4.965,27.745,27.745,0,0,1,2.568-10.4c.243-.518.545-1.008.824-1.509.054-.1.126-.182.224-.321A18.445,18.445,0,0,0,211.236,472.872Z" transform="translate(498.16 2711.137)" fill="#6F9AD3"></path>
  </g>
</svg>