<svg xmlns:xlink="http://www.w3.org/1999/xlink" xmlns="http://www.w3.org/2000/svg" width="66.578" height="63.464" viewBox="0 0 66.578 63.464">
  <path id="Path_57" data-name="Path 57" d="M404.864,297.341a1.492,1.492,0,1,1-.96,1.882,1.493,1.493,0,0,1,.96-1.882m-21.383-21.524a1.494,1.494,0,1,1-1.493,1.494,1.5,1.5,0,0,1,1.493-1.494m-.042-6.484c-.651-.38-1.323-.105-1.323.553a2.478,2.478,0,0,1-4.951,0c0-.659-.674-.933-1.321-.553a13.994,13.994,0,0,0-6.124,12.035c0,6.988,4.959,14.982,9.921,18.831,4.959-3.848,9.923-11.843,9.923-18.831a13.994,13.994,0,0,0-6.124-12.035m-2.115,36.057c-1.749,6.028-1.064,15.412,3.044,21.063a13.978,13.978,0,0,0,12.029,6.137c.746-.07,1.133-.689.746-1.223a2.476,2.476,0,0,1,4-2.908c.387.531,1.1.357,1.394-.333a13.991,13.991,0,0,0-2.122-13.336c-4.108-5.653-12.819-9.2-19.094-9.4m9.47,19.565a1.494,1.494,0,1,1-.328,2.087,1.491,1.491,0,0,1,.328-2.087M362.07,286.928a14,14,0,0,0-13.34,2.1c-.562.5-.508,1.226.115,1.427a2.476,2.476,0,0,1-1.529,4.707c-.623-.2-1.1.357-.933,1.088a14,14,0,0,0,9.555,9.547c6.646,2.157,15.783-.089,20.975-3.619-2.125-5.908-8.2-13.093-14.843-15.253m-5.276,3.109a1.494,1.494,0,1,1-1.882.956,1.5,1.5,0,0,1,1.882-.956m21.16,15.353c-6.275.2-14.986,3.747-19.093,9.4a13.983,13.983,0,0,0-2.121,13.336c.3.69,1.007.864,1.393.333a2.477,2.477,0,0,1,4.007,2.908c-.386.534,0,1.154.743,1.223a13.985,13.985,0,0,0,12.033-6.137c4.107-5.652,4.792-15.035,3.038-21.063M362.27,320.442a1.492,1.492,0,1,1-2.086.329,1.487,1.487,0,0,1,2.086-.329m34.939-33.514c-6.646,2.16-12.713,9.346-14.843,15.253,5.2,3.531,14.329,5.776,20.976,3.619a13.993,13.993,0,0,0,9.555-9.547c.163-.731-.305-1.289-.933-1.088a2.476,2.476,0,0,1-1.529-4.707c.627-.2.677-.93.115-1.427a14,14,0,0,0-13.341-2.1" transform="translate(-346.351 -269.161)" fill="#5BBBB7"></path>
</svg>