<svg xmlns:xlink="http://www.w3.org/1999/xlink" xmlns="http://www.w3.org/2000/svg" width="63.359" height="61.151" viewBox="0 0 63.359 61.151">
  <g id="Group_712" data-name="Group 712" transform="translate(-975.057 -3018)">
    <path id="Path_85" data-name="Path 85" d="M386.982,302.116c3.826,0,10.132-10.5,10.132-16.948S392.578,273.5,386.982,273.5s-10.133,5.226-10.133,11.672,6.305,16.948,10.133,16.948" transform="translate(619.755 2744.504)" fill="#34B233"></path>
    <path id="Path_86" data-name="Path 86" d="M387.49,301.671c1.183-3.641-6.854-12.883-12.985-14.873s-12.505.705-14.234,6.029,1.84,11.254,7.969,13.246,18.067-.762,19.25-4.4" transform="translate(615.223 2747.872)" fill="#34B233"></path>
    <path id="Path_87" data-name="Path 87" d="M387.232,302.261c-3.1-2.252-14.372,2.538-18.162,7.754s-3.19,12.11,1.337,15.4,11.271,1.729,15.06-3.486,4.86-17.419,1.765-19.667" transform="translate(617.02 2752.014)" fill="#34B233"></path>
    <path id="Path_88" data-name="Path 88" d="M388.052,301.671c1.184,3.641,13.118,6.394,19.25,4.4s9.7-7.924,7.97-13.246-8.1-8.022-14.234-6.029-14.169,11.233-12.987,14.873" transform="translate(622.708 2747.872)" fill="#34B233"></path>
    <path id="Path_89" data-name="Path 89" d="M387.193,302.26c-3.095,2.249-2.025,14.452,1.764,19.668s10.531,6.775,15.061,3.488,5.126-10.185,1.335-15.4-15.062-10.005-18.16-7.755" transform="translate(622.029 2752.014)" fill="#34B233"></path>
  </g>
</svg>