<svg xmlns:xlink="http://www.w3.org/1999/xlink" xmlns="http://www.w3.org/2000/svg" width="63.137" height="61.15" viewBox="0 0 63.137 61.15">
  <path id="Path_56" data-name="Path 56" d="M396.818,303.254c1.217.494,2.448.19,3.69-1.976.862-1.5,2-4.059,3.561-6.608a11.349,11.349,0,0,1,2.278-3.2c.025-.028.044-.057.068-.086l.005.016a11.317,11.317,0,1,1,6.279,19.325l.005.015c-.036-.009-.07-.022-.1-.03a11.327,11.327,0,0,1-3.728-1.251c-2.764-1.142-5.183-2.544-6.765-3.252-2.277-1.022-3.451-.545-4.146.57l-.356,1.1c-.092,1.308.576,2.386,3.022,2.9,1.693.356,4.474.643,7.383,1.346a11.322,11.322,0,0,1,3.75,1.175c.034.015.068.024.1.038l-.014.01a11.318,11.318,0,1,1-16.44,11.943l-.011.01c0-.037,0-.073-.005-.109a11.349,11.349,0,0,1,.041-3.931c.232-2.982.817-5.718,1-7.439.268-2.482-.551-3.451-1.823-3.767h-1.151c-1.275.317-2.092,1.285-1.825,3.767.185,1.721.771,4.456,1,7.439a11.317,11.317,0,0,1,.041,3.931c0,.035,0,.072,0,.109l-.014-.01a11.318,11.318,0,1,1-16.439-11.943l-.013-.01c.033-.014.068-.023.1-.038a11.351,11.351,0,0,1,3.75-1.175c2.91-.7,5.691-.99,7.385-1.346,2.444-.512,3.111-1.589,3.02-2.9l-.356-1.1c-.7-1.114-1.87-1.592-4.149-.57-1.578.708-4,2.11-6.764,3.252a11.294,11.294,0,0,1-3.726,1.251c-.035.009-.068.022-.106.03l.006-.015a11.32,11.32,0,1,1,6.279-19.325l.005-.016c.025.029.044.058.068.086a11.345,11.345,0,0,1,2.277,3.2c1.567,2.549,2.7,5.106,3.562,6.608,1.244,2.165,2.472,2.469,3.69,1.976l.932-.676c.845-1.005.936-2.271-.74-4.122-1.16-1.283-3.242-3.151-5.183-5.428a11.348,11.348,0,0,1-2.341-3.156c-.019-.03-.043-.06-.062-.091h.018a11.319,11.319,0,1,1,20.317,0h.019c-.02.032-.043.061-.062.091a11.377,11.377,0,0,1-2.343,3.156c-1.941,2.277-4.022,4.145-5.184,5.428-1.674,1.851-1.583,3.117-.737,4.122Z" transform="translate(-362.467 -273.496)" fill="#E98300"></path>
</svg>