<svg xmlns:xlink="http://www.w3.org/1999/xlink" xmlns="http://www.w3.org/2000/svg" width="67.116" height="63.835" viewBox="0 0 67.116 63.835">
  <g id="Group_710" data-name="Group 710" transform="translate(-975.057 -2787)">
    <path id="Path_67" data-name="Path 67" d="M383.873,302.453l-.005-30.017-1.427,3.129c-5.592.705-10.692,5.467-10.691,11.25,0,2.751,1.439,4.991,3.38,7.239s8.743,8.4,8.743,8.4M396,286.816c0-5.783-5.1-10.546-10.691-11.252l-1.427-3.128-.009,30.017s6.807-6.151,8.748-8.4S396,289.567,396,286.816" transform="translate(624.742 2514.564)" fill="#007D57"></path>
    <path id="Path_68" data-name="Path 68" d="M383.372,302.559l-28.548-9.271,2.533,2.326c-1.06,5.535,1.9,11.857,7.4,13.645,2.614.848,5.192.171,7.929-.979s10.689-5.721,10.689-5.721m-11.125-16.364c-5.5-1.787-11.606,1.591-14,6.69l-3.415.393,28.544,9.281s-3.747-8.374-5.287-10.914-3.22-4.6-5.838-5.45" transform="translate(620.233 2518.1)" fill="#007D57"></path>
    <path id="Path_69" data-name="Path 69" d="M383.282,303.665l-17.638,24.288,2.994-1.691c4.939,2.716,11.865,1.86,15.262-2.818,1.618-2.228,1.77-4.884,1.518-7.843s-2.136-11.937-2.136-11.937m-19,5.524c-3.4,4.68-2.076,11.53,2.035,15.387l-.683,3.368,17.648-24.28s-9.119.976-12.01,1.656-5.374,1.642-6.99,3.868" transform="translate(622.236 2522.882)" fill="#007D57"></path>
    <path id="Path_70" data-name="Path 70" d="M385.28,302.559l28.543-9.281-3.414-.391c-2.4-5.1-8.5-8.48-14-6.691-2.616.85-4.3,2.911-5.839,5.45s-5.286,10.914-5.286,10.914m18.617,6.7c5.5-1.788,8.457-8.11,7.4-13.646l2.533-2.325-28.548,9.271s7.953,4.57,10.689,5.721,5.312,1.829,7.927.979" transform="translate(628.346 2518.1)" fill="#007D57"></path>
    <path id="Path_71" data-name="Path 71" d="M384.24,303.665l17.645,24.279-.683-3.368c4.111-3.857,5.436-10.708,2.038-15.388-1.617-2.225-4.1-3.19-6.99-3.87s-12.01-1.653-12.01-1.653m-.621,19.778c3.4,4.679,10.326,5.534,15.263,2.816l2.992,1.691L384.24,303.665s-1.892,8.976-2.139,11.935-.1,5.616,1.518,7.843" transform="translate(627.474 2522.882)" fill="#007D57"></path>
  </g>
</svg>