<svg xmlns:xlink="http://www.w3.org/1999/xlink" xmlns="http://www.w3.org/2000/svg" width="67.291" height="63.992" viewBox="0 0 67.291 63.992">
  <g id="Group_711" data-name="Group 711" transform="translate(-975.058 -2904)">
    <path id="Path_76" data-name="Path 76" d="M405.949,283.979s-10.021-5.276-13.527-11.6c-3.507,6.329-13.527,11.6-13.527,11.6s9.968,9.1,13.527,22.042c3.56-12.945,13.527-22.042,13.527-22.042" transform="translate(616.282 2631.626)" fill="#9C5FB5"></path>
    <path id="Path_77" data-name="Path 77" d="M378.224,284.35s-8.112,7.9-15.217,9.279c4.938,5.291,6.856,16.449,6.856,16.449s11.732-6.669,25.147-6.052c-11.215-7.387-16.787-19.675-16.787-19.675" transform="translate(612.051 2634.816)" fill="#9C5FB5"></path>
    <path id="Path_78" data-name="Path 78" d="M369.9,311.293s5.006,10.157,4.123,17.338c6.56-3.057,17.764-1.435,17.764-1.435s-2.716-13.217,2.012-25.784c-10.489,8.382-23.9,9.881-23.9,9.881" transform="translate(613.887 2639.361)" fill="#9C5FB5"></path>
    <path id="Path_79" data-name="Path 79" d="M416.019,310.078s1.92-11.159,6.856-16.45c-7.106-1.379-15.219-9.279-15.219-9.279s-5.569,12.29-16.781,19.677c13.409-.617,25.144,6.052,25.144,6.052" transform="translate(619.474 2634.816)" fill="#9C5FB5"></path>
    <path id="Path_80" data-name="Path 80" d="M392.391,327.2s11.206-1.622,17.763,1.435c-.883-7.18,4.123-17.338,4.123-17.338s-13.411-1.5-23.9-9.881c4.73,12.565,2.014,25.784,2.014,25.784" transform="translate(619.341 2639.361)" fill="#9C5FB5"></path>
  </g>
</svg>