<svg xmlns:xlink="http://www.w3.org/1999/xlink" xmlns="http://www.w3.org/2000/svg" width="58.282" height="56.166" viewBox="0 0 58.282 56.166">
  <g id="Group_713" data-name="Group 713" transform="translate(-975.057 -3143)">
    <path id="Path_98" data-name="Path 98" d="M301.89,278.068c-4.465-5.174-12.671-2.063-12.671,4.316,0,2.639,1.667,4.986,3.472,7.174l9.2,10.615,9.158-10.625c1.832-2.2,3.542-4.518,3.542-7.206,0-6.348-8.182-9.4-12.7-4.274" transform="translate(702.297 2867.536)" fill="#009FDA"></path>
    <path id="Path_99" data-name="Path 99" d="M280.769,293.976c-6.3,2.647-5.878,11.414.187,13.384,2.51.814,5.257-.044,7.9-1.085l12.937-5.469-7.274-11.994c-1.523-2.42-3.2-4.763-5.757-5.595-6.041-1.96-11.471,4.877-7.99,10.759" transform="translate(698.835 2869.51)" fill="#009FDA"></path>
    <path id="Path_100" data-name="Path 100" d="M289.149,318.228c.571,6.812,9.038,9.118,12.788,3.957,1.551-2.135,1.582-5.012,1.407-7.846l-1.2-13.992-13.654,3.211c-2.773.7-5.521,1.574-7.1,3.747-3.732,5.136,1.093,12.414,7.763,10.922" transform="translate(699.864 2874.163)" fill="#009FDA"></path>
    <path id="Path_101" data-name="Path 101" d="M323.074,293.947c3.542-5.847-1.953-12.689-8.019-10.718-2.51.815-4.227,3.127-5.751,5.52l-7.251,12.028,12.933,5.428c2.657,1.063,5.392,1.97,7.946,1.142,6.039-1.964,6.414-10.687.141-13.4" transform="translate(705.716 2869.512)" fill="#009FDA"></path>
    <path id="Path_102" data-name="Path 102" d="M314.244,318.214c6.653,1.561,11.464-5.777,7.715-10.939-1.55-2.134-4.279-3.053-7.027-3.761l-13.679-3.18-1.166,13.978c-.19,2.854-.208,5.735,1.37,7.908,3.733,5.139,12.147,2.8,12.788-4.007" transform="translate(705.168 2874.16)" fill="#009FDA"></path>
  </g>
</svg>